<svg width="18" height="18" viewBox="0 0 18 18" fill="none" xmlns="http://www.w3.org/2000/svg">
<path d="M17.3275 5.62502C17.3262 5.56486 17.3181 5.50504 17.3033 5.44669C17.2975 5.42586 17.2858 5.40586 17.2783 5.38502C17.2608 5.33752 17.245 5.29086 17.22 5.24752C17.2067 5.22502 17.1883 5.20669 17.1725 5.18502C17.1458 5.14752 17.12 5.10919 17.0875 5.07669C17.0683 5.05836 17.0433 5.04336 17.0225 5.02586C16.99 4.99919 16.96 4.97002 16.9225 4.94752C16.9192 4.94502 16.915 4.94502 16.9108 4.94252L16.9042 4.93752L9.42167 0.779189C9.29803 0.710627 9.15899 0.674585 9.01761 0.674439C8.87623 0.674293 8.73713 0.710049 8.61334 0.778355L1.09584 4.93669C1.09334 4.93919 1.09084 4.94252 1.08667 4.94502L1.07834 4.94836C1.04917 4.96502 1.02751 4.98919 1.00001 5.00919C0.970005 5.03169 0.938338 5.05169 0.911672 5.07752C0.886672 5.10336 0.867505 5.13336 0.845838 5.16252C0.823338 5.19169 0.798338 5.21752 0.780005 5.24919C0.758338 5.28502 0.746672 5.32586 0.730838 5.36502C0.719172 5.39252 0.704172 5.41836 0.696672 5.44836C0.68228 5.50564 0.674176 5.56432 0.672505 5.62336C0.671672 5.63752 0.666672 5.65002 0.666672 5.66502V12.3334C0.666672 12.6359 0.830839 12.915 1.09584 13.0617L8.57751 17.2175L8.57834 17.2184L8.58001 17.2192L8.59667 17.2284C8.6325 17.2484 8.67167 17.2592 8.70917 17.2734C8.73584 17.2842 8.76167 17.2984 8.79 17.3059C8.9283 17.3415 9.07338 17.3415 9.21167 17.3059C9.23917 17.2984 9.26501 17.2842 9.2925 17.2734C9.33 17.2592 9.36917 17.2492 9.405 17.2284L9.42167 17.2192L9.42334 17.2184L9.42417 17.2175L16.9058 13.0617C17.1692 12.915 17.3333 12.6359 17.3333 12.3334V5.66502C17.3333 5.65086 17.3283 5.63919 17.3275 5.62502ZM8.97667 8.89336L3.21501 5.67086L5.51667 4.39752L11.2117 7.65169L8.97667 8.89336ZM9.01667 2.46086L14.7842 5.66669L12.9142 6.70586L7.2225 3.45336L9.01667 2.46086ZM9.83334 15.0842L9.835 10.3517L12.3333 8.95336V11.5L14 10.6667V8.02085L15.6667 7.08836V11.8425L9.83334 15.0842Z" fill="#2D2D2D"/>
</svg>
