<svg xmlns="http://www.w3.org/2000/svg" version="1.1" width="30px" height="16px"
    viewBox="0 0 220 160"
    style="shape-rendering:geometricPrecision; text-rendering:geometricPrecision; image-rendering:optimizeQuality; fill-rule:evenodd; clip-rule:evenodd"
    xmlns:xlink="http://www.w3.org/1999/xlink" cx="20" cy="20">
    <g>
        <path style="opacity:0.961" fill="#132d72"
            d="M 225.5,73.5 C 225.5,80.1667 225.5,86.8333 225.5,93.5C 221.246,115.946 209.246,133.113 189.5,145C 159.463,160.897 127.463,166.897 93.5,163C 67.8039,161.216 44.8039,152.55 24.5,137C 10.8229,125.468 2.48954,110.968 -0.5,93.5C -0.5,86.8333 -0.5,80.1667 -0.5,73.5C 4.94446,52.5111 17.2778,36.6778 36.5,26C 72.3047,7.48225 109.971,2.48225 149.5,11C 173.967,16.1453 194.8,27.6453 212,45.5C 218.714,53.8337 223.214,63.1671 225.5,73.5 Z" />
    </g>
    <g>
        <path style="opacity:1" fill="#00b3ec"
            d="M 102.5,11.5 C 128.221,10.5083 152.888,15.0083 176.5,25C 182.834,28.1647 188.834,31.8313 194.5,36C 181.379,42.1313 167.712,43.7979 153.5,41C 145.5,38 137.5,35 129.5,32C 115.136,28.6923 102.136,31.359 90.5,40C 82.6619,40.7104 74.9952,42.2104 67.5,44.5C 55.3235,42.7723 43.6569,39.439 32.5,34.5C 53.7504,20.4164 77.0838,12.7497 102.5,11.5 Z" />
    </g>
    <g>
        <path style="opacity:1" fill="#fbfbfc"
            d="M 107.5,35.5 C 114.175,35.3337 120.842,35.5004 127.5,36C 134.315,38.2722 140.981,40.9388 147.5,44C 165.032,48.4274 182.032,46.9274 198.5,39.5C 210.083,47.9991 217.083,59.3324 219.5,73.5C 203.233,76.2002 187.733,81.2002 173,88.5C 158.127,75.2912 142.96,62.4579 127.5,50C 122.202,46.2432 116.535,45.5766 110.5,48C 103.441,53.3909 96.1074,58.3909 88.5,63C 83.97,64.2274 79.97,63.3941 76.5,60.5C 81.9576,54.5412 87.6243,48.7079 93.5,43C 97.815,39.6782 102.482,37.1782 107.5,35.5 Z" />
    </g>
    <g>
        <path style="opacity:1" fill="#fbfbfc"
            d="M 27.5,37.5 C 41.807,43.9945 56.807,47.4945 72.5,48C 76.4773,47.2154 80.3107,46.0487 84,44.5C 84.6667,45.1667 84.6667,45.8333 84,46.5C 66.3945,62.186 69.2278,68.686 92.5,66C 99.3187,60.5127 106.652,55.846 114.5,52C 117.594,51.3482 120.594,51.6815 123.5,53C 140.585,65.7876 156.751,79.6209 172,94.5C 173.033,101.76 169.867,104.593 162.5,103C 156.314,97.3134 149.981,91.8134 143.5,86.5C 142.417,87.365 142.251,88.365 143,89.5C 148,94.5 153,99.5 158,104.5C 159.365,112.762 155.865,115.928 147.5,114C 143.245,109.072 138.412,104.905 133,101.5C 131.743,101.85 131.409,102.517 132,103.5C 135.298,107.8 138.965,111.8 143,115.5C 143.702,121.758 140.868,124.258 134.5,123C 130.612,118.609 126.279,114.776 121.5,111.5C 120.417,112.365 120.251,113.365 121,114.5C 123.646,117.98 126.479,121.314 129.5,124.5C 125.918,128.147 121.918,128.481 117.5,125.5C 117.342,122.283 117.175,118.95 117,115.5C 114.592,109.378 110.092,106.378 103.5,106.5C 104.336,100.514 102.002,96.3473 96.5,94C 91.1288,94.6216 86.7955,92.955 83.5,89C 78.9768,86.9795 74.6435,87.1461 70.5,89.5C 65.0274,84.7138 59.3608,84.3804 53.5,88.5C 38.3559,80.7112 22.3559,75.3779 5.5,72.5C 5.89426,66.7031 7.7276,61.3697 11,56.5C 15.9627,49.7037 21.4627,43.3704 27.5,37.5 Z" />
    </g>
    <g>
        <path style="opacity:1" fill="#00b4ed"
            d="M 4.5,76.5 C 20.092,79.6973 35.092,84.6973 49.5,91.5C 49.9824,96.0477 51.1491,100.381 53,104.5C 56.0781,106.931 59.5781,107.931 63.5,107.5C 64.1264,110.315 65.4598,112.815 67.5,115C 70.9638,116.759 74.6304,117.926 78.5,118.5C 81.7333,123.615 86.4,125.782 92.5,125C 98.408,133.512 105.575,134.678 114,128.5C 117.081,130.376 120.414,131.376 124,131.5C 129.491,129.83 134.991,128.33 140.5,127C 144.106,125.726 146.773,123.393 148.5,120C 156.767,119.558 161.767,115.392 163.5,107.5C 168.74,108.462 172.907,106.795 176,102.5C 177.456,98.6308 177.956,94.7975 177.5,91C 191.412,85.3061 205.746,81.1394 220.5,78.5C 220.394,96.5477 213.394,111.381 199.5,123C 173.468,142.254 144.134,151.421 111.5,150.5C 78.9684,151.266 49.9684,141.766 24.5,122C 10.5949,110.023 3.92826,94.8558 4.5,76.5 Z" />
    </g>
    <g>
        <path style="opacity:1" fill="#f9f9fb"
            d="M 59.5,89.5 C 63.9115,90.0701 67.0782,92.4034 69,96.5C 76.0969,89.2837 81.9302,90.2837 86.5,99.5C 90.0124,97.026 93.679,96.8593 97.5,99C 98.1258,99.7504 98.6258,100.584 99,101.5C 99.1751,104.95 99.3418,108.283 99.5,111.5C 109.659,109.158 113.826,113.158 112,123.5C 108.229,127.788 103.729,128.621 98.5,126C 96.6234,123.874 95.6234,121.374 95.5,118.5C 87.6337,122.401 82.6337,120.068 80.5,111.5C 71.313,115.016 66.6463,111.683 66.5,101.5C 58.4425,104.945 54.6092,102.278 55,93.5C 56.3968,91.9297 57.8968,90.5964 59.5,89.5 Z" />
    </g>
</svg>