<svg width="18" height="20" viewBox="0 0 18 20" fill="none" xmlns="http://www.w3.org/2000/svg">
<path d="M17.0001 4C17.255 4.00028 17.5001 4.09788 17.6855 4.27285C17.8708 4.44782 17.9823 4.68695 17.9973 4.94139C18.0122 5.19584 17.9294 5.44638 17.7658 5.64183C17.6023 5.83729 17.3702 5.9629 17.1171 5.993L17.0001 6H16.9191L16.0001 17C16.0002 17.7652 15.7078 18.5015 15.1828 19.0583C14.6579 19.615 13.94 19.9501 13.1761 19.995L13.0001 20H5.00011C3.40211 20 2.09611 18.751 2.00811 17.25L2.00311 17.083L1.08011 6H1.00011C0.745233 5.99972 0.500081 5.90212 0.314745 5.72715C0.129408 5.55218 0.0178779 5.31305 0.00294074 5.05861C-0.0119964 4.80416 0.0707874 4.55362 0.234378 4.35817C0.397968 4.16271 0.630017 4.0371 0.883113 4.007L1.00011 4H17.0001ZM7.51111 9.14C7.30159 9.01528 7.05372 8.9714 6.81412 9.01663C6.57452 9.06186 6.3597 9.19307 6.21006 9.38558C6.06042 9.5781 5.98628 9.81865 6.00157 10.062C6.01687 10.3054 6.12055 10.5347 6.29311 10.707L7.58511 12L6.29311 13.293L6.21011 13.387C6.0547 13.588 5.98162 13.8406 6.00571 14.0935C6.02981 14.3464 6.14927 14.5807 6.33983 14.7488C6.5304 14.9168 6.77778 15.006 7.03173 14.9982C7.28568 14.9905 7.52715 14.8863 7.70711 14.707L9.00011 13.415L10.2931 14.707L10.3871 14.79C10.5881 14.9454 10.8407 15.0185 11.0936 14.9944C11.3466 14.9703 11.5808 14.8508 11.7489 14.6603C11.9169 14.4697 12.0061 14.2223 11.9983 13.9684C11.9906 13.7144 11.8865 13.473 11.7071 13.293L10.4151 12L11.7071 10.707L11.7901 10.613C11.9455 10.412 12.0186 10.1594 11.9945 9.90647C11.9704 9.65355 11.851 9.41928 11.6604 9.25125C11.4698 9.08321 11.2224 8.99402 10.9685 9.00177C10.7145 9.00953 10.4731 9.11365 10.2931 9.293L9.00011 10.585L7.70711 9.293L7.61311 9.21L7.51111 9.14ZM11.0001 0C11.5305 0 12.0393 0.210714 12.4143 0.585786C12.7894 0.960859 13.0001 1.46957 13.0001 2C12.9998 2.25488 12.9022 2.50003 12.7273 2.68537C12.5523 2.8707 12.3132 2.98223 12.0587 2.99717C11.8043 3.01211 11.5537 2.92933 11.3583 2.76574C11.1628 2.60214 11.0372 2.3701 11.0071 2.117L11.0001 2H7.00011L6.99311 2.117C6.96301 2.3701 6.8374 2.60214 6.64195 2.76574C6.44649 2.92933 6.19595 3.01211 5.94151 2.99717C5.68707 2.98223 5.44793 2.8707 5.27296 2.68537C5.09799 2.50003 5.0004 2.25488 5.00011 2C4.99995 1.49542 5.19052 1.00943 5.53361 0.639452C5.8767 0.269471 6.34696 0.0428433 6.85011 0.00500011L7.00011 0H11.0001Z" fill="#D61A00"/>
</svg>
