<svg width="16" height="16" viewBox="0 0 16 16" fill="none" xmlns="http://www.w3.org/2000/svg">
<path d="M0.0420074 1.75C0.0420074 0.784 0.826007 0 1.79201 0H10.251C11.217 0 12.001 0.784 12.001 1.75V3H12.882C13.1607 3.00001 13.4339 3.07767 13.671 3.22428C13.908 3.37088 14.0995 3.58063 14.224 3.83L15.842 7.065C15.9462 7.27298 16.0007 7.50236 16.001 7.735V11.5C16.001 11.8978 15.843 12.2794 15.5617 12.5607C15.2804 12.842 14.8988 13 14.501 13H12.951C12.8363 13.5651 12.5296 14.0732 12.0831 14.4382C11.6366 14.8031 11.0777 15.0025 10.501 15.0025C9.92433 15.0025 9.36539 14.8031 8.91888 14.4382C8.47237 14.0732 8.16576 13.5651 8.05101 13H6.95101C6.83625 13.5651 6.52964 14.0732 6.08314 14.4382C5.63663 14.8031 5.07768 15.0025 4.50101 15.0025C3.92433 15.0025 3.36538 14.8031 2.91888 14.4382C2.47237 14.0732 2.16577 13.5651 2.05101 13H1.79201C1.32788 13 0.882759 12.8156 0.55457 12.4874C0.226382 12.1592 0.0420074 11.7141 0.0420074 11.25V1.75ZM12.001 4V7H14.691L13.33 4.276C13.2884 4.19305 13.2246 4.12331 13.1457 4.07456C13.0667 4.02582 12.9758 4 12.883 4H12H12.001ZM4.50101 11C4.10318 11 3.72165 11.158 3.44035 11.4393C3.15904 11.7206 3.00101 12.1022 3.00101 12.5C3.00101 12.8978 3.15904 13.2794 3.44035 13.5607C3.72165 13.842 4.10318 14 4.50101 14C4.89883 14 5.28036 13.842 5.56167 13.5607C5.84297 13.2794 6.00101 12.8978 6.00101 12.5C6.00101 12.1022 5.84297 11.7206 5.56167 11.4393C5.28036 11.158 4.89883 11 4.50101 11ZM9.00101 12.5C9.00101 12.8978 9.15904 13.2794 9.44035 13.5607C9.72165 13.842 10.1032 14 10.501 14C10.8988 14 11.2804 13.842 11.5617 13.5607C11.843 13.2794 12.001 12.8978 12.001 12.5C12.001 12.1022 11.843 11.7206 11.5617 11.4393C11.2804 11.158 10.8988 11 10.501 11C10.1032 11 9.72165 11.158 9.44035 11.4393C9.15904 11.7206 9.00101 12.1022 9.00101 12.5Z" fill="#2D2D2D"/>
</svg>
