<svg width="23" height="22" viewBox="0 0 23 22" fill="none" xmlns="http://www.w3.org/2000/svg">
    <ellipse cx="11.5" cy="11" rx="11.5" ry="11" fill="#F3E2E2" />
    <path
        d="M12 12.05L8.325 15.725C8.1875 15.8625 8.0125 15.9312 7.8 15.9312C7.5875 15.9312 7.4125 15.8625 7.275 15.725C7.1375 15.5875 7.06875 15.4125 7.06875 15.2C7.06875 14.9875 7.1375 14.8125 7.275 14.675L10.95 11L7.275 7.32498C7.1375 7.18748 7.06875 7.01248 7.06875 6.79998C7.06875 6.58748 7.1375 6.41248 7.275 6.27498C7.4125 6.13748 7.5875 6.06873 7.8 6.06873C8.0125 6.06873 8.1875 6.13748 8.325 6.27498L12 9.94998L15.675 6.27498C15.8125 6.13748 15.9875 6.06873 16.2 6.06873C16.4125 6.06873 16.5875 6.13748 16.725 6.27498C16.8625 6.41248 16.9312 6.58748 16.9312 6.79998C16.9312 7.01248 16.8625 7.18748 16.725 7.32498L13.05 11L16.725 14.675C16.8625 14.8125 16.9312 14.9875 16.9312 15.2C16.9312 15.4125 16.8625 15.5875 16.725 15.725C16.5875 15.8625 16.4125 15.9312 16.2 15.9312C15.9875 15.9312 15.8125 15.8625 15.675 15.725L12 12.05Z"
        fill="#EA3333" />
</svg>